<?xml version="1.0" encoding="UTF-8" standalone="no"?>
<!-- Created with Inkscape (http://www.inkscape.org/) -->

<svg
   xmlns:dc="http://purl.org/dc/elements/1.1/"
   xmlns:cc="http://creativecommons.org/ns#"
   xmlns:rdf="http://www.w3.org/1999/02/22-rdf-syntax-ns#"
   xmlns:svg="http://www.w3.org/2000/svg"
   xmlns="http://www.w3.org/2000/svg"
   xmlns:sodipodi="http://sodipodi.sourceforge.net/DTD/sodipodi-0.dtd"
   xmlns:inkscape="http://www.inkscape.org/namespaces/inkscape"
   width="512"
   height="512"
   viewBox="0 0 135.46666 135.46667"
   version="1.1"
   id="svg8"
   inkscape:version="0.92.5 (2060ec1f9f, 2020-04-08)"
   sodipodi:docname="dibujo.svg">
  <defs
     id="defs2" />
  <sodipodi:namedview
     id="base"
     pagecolor="#ffffff"
     bordercolor="#666666"
     borderopacity="1.0"
     inkscape:pageopacity="0.0"
     inkscape:pageshadow="2"
     inkscape:zoom="1"
     inkscape:cx="256"
     inkscape:cy="250.16578"
     inkscape:document-units="mm"
     inkscape:current-layer="layer1"
     showgrid="false"
     units="px"
     inkscape:window-width="1360"
     inkscape:window-height="731"
     inkscape:window-x="0"
     inkscape:window-y="0"
     inkscape:window-maximized="1" />
  <metadata
     id="metadata5">
    <rdf:RDF>
      <cc:Work
         rdf:about="">
        <dc:format>image/svg+xml</dc:format>
        <dc:type
           rdf:resource="http://purl.org/dc/dcmitype/StillImage" />
        <dc:title></dc:title>
      </cc:Work>
    </rdf:RDF>
  </metadata>
  <g
     inkscape:label="Capa 1"
     inkscape:groupmode="layer"
     id="layer1"
     transform="translate(0,-161.53332)">
    <g
       id="g4728">
      <circle
         r="67.73333"
         style="stroke-width:0.34890246;fill:#f87171;fill-opacity:1"
         cy="229.26666"
         cx="67.73333"
         id="path3721" />
      <g
         transform="translate(5.8375168,-0.09229739)"
         id="g4686">
        <g
           id="g4646"
           transform="matrix(0.18604097,0,0,0.18604097,14.270813,181.73396)">
          <polygon
             id="polygon4528"
             points="172.046,0 339.924,0 458.638,118.715 458.638,286.601 339.924,405.314 172.046,405.314 53.331,286.601 53.331,118.715 "
             style="fill:#e6e9ed" />
          <path
             id="path4530"
             d="m 255.988,336.318 c 0,11.781 -9.554,21.326 -21.335,21.326 -11.781,0 -21.327,-9.545 -21.327,-21.326 0,-11.781 9.546,-21.328 21.327,-21.328 11.781,0 21.335,9.547 21.335,21.328 z"
             style="fill:#ed5564"
             inkscape:connector-curvature="0" />
          <path
             id="path4532"
             d="m 213.326,336.318 c 0,11.781 -9.555,21.326 -21.336,21.326 -11.78,0 -21.335,-9.545 -21.335,-21.326 0,-11.781 9.555,-21.328 21.335,-21.328 11.781,0 21.336,9.547 21.336,21.328 z"
             style="fill:#ac92eb"
             inkscape:connector-curvature="0" />
          <path
             id="path4534"
             d="m 170.655,336.318 c 0,11.781 -9.547,21.326 -21.327,21.326 -11.789,0 -21.335,-9.545 -21.335,-21.326 0,-11.781 9.546,-21.328 21.335,-21.328 11.78,0 21.327,9.547 21.327,21.328 z"
             style="fill:#a0d468"
             inkscape:connector-curvature="0" />
          <path
             id="path4536"
             d="m 298.643,336.318 c 0,11.781 -9.531,21.326 -21.312,21.326 -11.797,0 -21.344,-9.545 -21.344,-21.326 0,-11.781 9.547,-21.328 21.344,-21.328 11.781,0 21.312,9.547 21.312,21.328 z"
             style="fill:#ac92eb"
             inkscape:connector-curvature="0" />
          <path
             id="path4538"
             d="m 341.329,336.318 c 0,11.781 -9.562,21.326 -21.342,21.326 -11.781,0 -21.344,-9.545 -21.344,-21.326 0,-11.781 9.562,-21.328 21.344,-21.328 11.78,0 21.342,9.547 21.342,21.328 z"
             style="fill:#fc6e51"
             inkscape:connector-curvature="0" />
          <path
             id="path4540"
             d="m 383.985,336.318 c 0,11.781 -9.562,21.326 -21.344,21.326 -11.782,0 -21.312,-9.545 -21.312,-21.326 0,-11.781 9.531,-21.328 21.312,-21.328 11.781,0 21.344,9.547 21.344,21.328 z"
             style="fill:#48cfad"
             inkscape:connector-curvature="0" />
          <g
             id="g4550">
	<polygon
   id="polygon4542"
   points="458.638,130.262 458.638,118.715 450.482,110.544 53.331,275.054 53.331,286.601 61.495,294.771 "
   style="fill:#ccd1d9" />

	<polygon
   id="polygon4544"
   points="328.392,0 247.872,194.385 267.574,202.556 348.095,8.157 339.924,0 "
   style="fill:#ccd1d9" />

	<polygon
   id="polygon4546"
   points="245.966,206.337 265.676,198.181 183.593,0 172.046,0 163.882,8.157 "
   style="fill:#ccd1d9" />

	<polygon
   id="polygon4548"
   points="458.638,275.054 61.495,110.544 53.331,118.715 53.331,130.262 450.482,294.771 458.638,286.601 "
   style="fill:#ccd1d9" />

</g>
          <path
             id="path4552"
             d="m 234.653,373.316 c 0,11.781 -9.547,21.328 -21.327,21.328 -11.789,0 -21.336,-9.547 -21.336,-21.328 0,-11.781 9.547,-21.328 21.336,-21.328 11.78,0 21.327,9.547 21.327,21.328 z"
             style="fill:#48cfad"
             inkscape:connector-curvature="0" />
          <path
             id="path4554"
             d="m 191.99,373.316 c 0,11.781 -9.554,21.328 -21.335,21.328 -11.78,0 -21.327,-9.547 -21.327,-21.328 0,-11.781 9.547,-21.328 21.327,-21.328 11.781,0 21.335,9.547 21.335,21.328 z"
             style="fill:#fc6e51"
             inkscape:connector-curvature="0" />
          <path
             id="path4556"
             d="m 277.332,373.316 c 0,11.781 -9.562,21.328 -21.344,21.328 -11.78,0 -21.335,-9.547 -21.335,-21.328 0,-11.781 9.555,-21.328 21.335,-21.328 11.781,0 21.344,9.547 21.344,21.328 z"
             style="fill:#ffce54"
             inkscape:connector-curvature="0" />
          <path
             id="path4558"
             d="m 319.987,373.316 c 0,11.781 -9.562,21.328 -21.344,21.328 -11.782,0 -21.312,-9.547 -21.312,-21.328 0,-11.781 9.53,-21.328 21.312,-21.328 11.782,0 21.344,9.547 21.344,21.328 z"
             style="fill:#5d9cec"
             inkscape:connector-curvature="0" />
          <path
             id="path4560"
             d="m 362.641,373.316 c 0,11.781 -9.531,21.328 -21.312,21.328 -11.796,0 -21.342,-9.547 -21.342,-21.328 0,-11.781 9.546,-21.328 21.342,-21.328 11.781,0 21.312,9.547 21.312,21.328 z"
             style="fill:#ed5564"
             inkscape:connector-curvature="0" />
          <g
             id="g4568">
	<path
   id="path4562"
   d="m 127.993,469.312 h -4.352 L 273.925,224.853 238.043,201.791 72.916,469.312 h -8.921 c -11.781,0 -21.336,9.547 -21.336,21.328 0,11.781 9.555,21.344 21.336,21.344 h 63.998 c 11.78,0 21.335,-9.562 21.335,-21.344 0,-11.782 -9.555,-21.328 -21.335,-21.328 z"
   style="fill:#434a54"
   inkscape:connector-curvature="0" />

	<path
   id="path4564"
   d="m 383.985,469.312 h 4.343 L 238.044,224.853 273.926,201.791 439.061,469.312 h 8.921 c 11.781,0 21.343,9.547 21.343,21.328 0,11.781 -9.562,21.344 -21.343,21.344 h -63.997 c -11.781,0 -21.344,-9.562 -21.344,-21.344 0,-11.782 9.563,-21.328 21.344,-21.328 z"
   style="fill:#434a54"
   inkscape:connector-curvature="0" />

	<path
   id="path4566"
   d="m 287.987,202.65 c 0,17.687 -14.327,31.999 -31.999,31.999 -17.671,0 -31.999,-14.312 -31.999,-31.999 0,-17.671 14.328,-31.999 31.999,-31.999 17.672,0 31.999,14.328 31.999,31.999 z"
   style="fill:#434a54"
   inkscape:connector-curvature="0" />

</g>
          <path
             id="path4570"
             d="m 255.988,245.321 c -23.522,0 -42.662,-19.14 -42.662,-42.67 0,-23.515 19.14,-42.655 42.662,-42.655 23.531,0 42.655,19.14 42.655,42.655 0,23.53 -19.124,42.67 -42.655,42.67 z m 0,-63.998 c -11.765,0 -21.335,9.578 -21.335,21.328 0,11.765 9.57,21.343 21.335,21.343 11.766,0 21.344,-9.578 21.344,-21.343 0,-11.75 -9.578,-21.328 -21.344,-21.328 z"
             style="fill:#656d78"
             inkscape:connector-curvature="0" />
          <g
             id="g4572">
</g>
          <g
             id="g4574">
</g>
          <g
             id="g4576">
</g>
          <g
             id="g4578">
</g>
          <g
             id="g4580">
</g>
          <g
             id="g4582">
</g>
          <g
             id="g4584">
</g>
          <g
             id="g4586">
</g>
          <g
             id="g4588">
</g>
          <g
             id="g4590">
</g>
          <g
             id="g4592">
</g>
          <g
             id="g4594">
</g>
          <g
             id="g4596">
</g>
          <g
             id="g4598">
</g>
          <g
             id="g4600">
</g>
        </g>
      </g>
    </g>
  </g>
</svg>
