<svg version="1.0" xmlns="http://www.w3.org/2000/svg"
 width="444.000000pt" height="287.000000pt" viewBox="0 0 444.000000 287.000000"
 preserveAspectRatio="xMidYMid meet">

<g transform="translate(0.000000,287.000000) scale(0.100000,-0.100000)"
fill="#000000" stroke="none">
<path d="M1690 2758 c0 -6 -24 -53 -54 -103 -250 -422 -1113 -1874 -1287
-2167 -121 -202 -219 -370 -219 -373 0 -3 798 -4 1773 -3 l1772 3 75 23 c211
65 373 197 470 383 61 117 84 212 84 349 0 137 -23 232 -84 349 -102 195 -289
340 -500 388 -44 10 -80 21 -80 26 0 4 11 30 25 57 72 141 91 357 47 514 -75
263 -267 457 -532 537 -74 23 -80 23 -782 27 -563 2 -708 0 -708 -10z m1430
-411 c76 -28 169 -121 198 -199 32 -85 37 -144 18 -217 -38 -149 -147 -253
-295 -281 -30 -5 -196 -10 -370 -10 l-316 0 -210 355 c-115 196 -211 360 -213
365 -4 10 1006 20 1093 12 22 -3 65 -14 95 -25z m-976 -1106 c240 -403 436
-735 436 -737 0 -2 -398 -4 -885 -4 -487 0 -885 2 -885 4 0 2 147 250 326 552
180 302 378 636 441 742 63 107 119 190 123 185 5 -4 204 -338 444 -742z
m1541 -30 c121 -49 212 -171 231 -308 13 -102 -39 -228 -127 -307 -92 -83
-119 -88 -459 -87 -217 1 -298 5 -306 14 -13 14 -424 705 -424 712 0 3 231 5
513 3 l512 -3 60 -24z"/>
</g>
</svg>
